{
  "accessors": [
    {
      "bufferView": 2,
      "componentType": 5126,
      "count": 6143,
      "max": [
        2.8872976303100586,
        13.27040958404541,
        8.724133491516113
      ],
      "min": [
        -3.962552547454834,
        1.0952203273773193,
        -0.7410966157913208
      ],
      "type": "VEC3"
    },
    {
      "bufferView": 2,
      "byteOffset": 73716,
      "componentType": 5126,
      "count": 6143,
      "max": [
        1.0,
        1.0,
        1.0
      ],
      "min": [
        -1.0,
        -1.0,
        -1.0
      ],
      "type": "VEC3"
    },
    {
      "bufferView": 3,
      "componentType": 5126,
      "count": 6143,
      "max": [
        1.0,
        1.0,
        0.9999838471412659,
        1.0
      ],
      "min": [
        -0.9999998211860657,
        -0.9997576475143433,
        -0.9999995231628418,
        -1.0
      ],
      "type": "VEC4"
    },
    {
      "bufferView": 1,
      "componentType": 5126,
      "count": 6143,
      "max": [
        0.9969542622566223,
        0.9983534812927246
      ],
      "min": [
        0.0012319684028625488,
        0.0032483339309692383
      ],
      "type": "VEC2"
    },
    {
      "bufferView": 0,
      "componentType": 5125,
      "count": 24681,
      "type": "SCALAR"
    }
  ],
  "asset": {
    "extras": {
      "author": "Jayson Stauffer (https://sketchfab.com/JaysonStauffer)",
      "license": "CC-BY-4.0 (http://creativecommons.org/licenses/by/4.0/)",
      "source": "https://sketchfab.com/3d-models/6-axis-industrial-robot-arm-3ecc74c22c584b2b8295f17dedcdb89f",
      "title": "6 Axis Industrial Robot Arm"
    },
    "generator": "Sketchfab-15.42.0",
    "version": "2.0"
  },
  "bufferViews": [
    {
      "buffer": 0,
      "byteLength": 98724,
      "name": "floatBufferViews",
      "target": 34963
    },
    {
      "buffer": 0,
      "byteLength": 49144,
      "byteOffset": 98724,
      "byteStride": 8,
      "name": "floatBufferViews",
      "target": 34962
    },
    {
      "buffer": 0,
      "byteLength": 147432,
      "byteOffset": 147868,
      "byteStride": 12,
      "name": "floatBufferViews",
      "target": 34962
    },
    {
      "buffer": 0,
      "byteLength": 98288,
      "byteOffset": 295300,
      "byteStride": 16,
      "name": "floatBufferViews",
      "target": 34962
    }
  ],
  "buffers": [
    {
      "byteLength": 393588,
      "uri": "scene.bin"
    }
  ],
  "extensionsUsed": [
    "KHR_materials_specular"
  ],
  "images": [
    {
      "uri": "textures/Hansrobottt2_svgBlinn1_baseColor.png"
    },
    {
      "uri": "textures/Hansrobottt2_svgBlinn1_metallicRoughness.png"
    },
    {
      "uri": "textures/Hansrobottt2_svgBlinn1_normal.png"
    }
  ],
  "materials": [
    {
      "doubleSided": true,
      "extensions": {
        "KHR_materials_specular": {
          "specularColorFactor": [
            1.0,
            1.0,
            1.0
          ],
          "specularFactor": 0.1053734756097561
        }
      },
      "name": "Hansrobottt2_svgBlinn1",
      "normalTexture": {
        "index": 2
      },
      "occlusionTexture": {
        "index": 1
      },
      "pbrMetallicRoughness": {
        "baseColorTexture": {
          "index": 0
        },
        "metallicRoughnessTexture": {
          "index": 1
        }
      }
    }
  ],
  "meshes": [
    {
      "name": "robolow_Hansrobottt2_svgBlinn1_0",
      "primitives": [
        {
          "attributes": {
            "NORMAL": 1,
            "POSITION": 0,
            "TANGENT": 2,
            "TEXCOORD_0": 3
          },
          "indices": 4,
          "material": 0,
          "mode": 4
        }
      ]
    }
  ],
  "nodes": [
    {
      "children": [
        1
      ],
      "matrix": [
        0.10566530376672745,
        0.0,
        0.0,
        0.0,
        0.0,
        2.346241062916642e-17,
        -0.10566530376672745,
        0.0,
        0.0,
        0.10566530376672745,
        2.346241062916642e-17,
        0.0,
        0.0,
        0.0,
        0.0,
        1.0
      ],
      "name": "Sketchfab_model"
    },
    {
      "children": [
        2
      ],
      "matrix": [
        1.0,
        0.0,
        0.0,
        0.0,
        0.0,
        0.0,
        1.0,
        0.0,
        0.0,
        -1.0,
        0.0,
        0.0,
        0.0,
        0.0,
        0.0,
        1.0
      ],
      "name": "4a6e9b15bf4848a4a4f704dc9fbb389e.fbx"
    },
    {
      "children": [
        3
      ],
      "name": "RootNode"
    },
    {
      "children": [
        4
      ],
      "name": "robolow"
    },
    {
      "mesh": 0,
      "name": "robolow_Hansrobottt2_svgBlinn1_0"
    }
  ],
  "samplers": [
    {
      "magFilter": 9729,
      "minFilter": 9987,
      "wrapS": 10497,
      "wrapT": 10497
    }
  ],
  "scene": 0,
  "scenes": [
    {
      "name": "Sketchfab_Scene",
      "nodes": [
        0
      ]
    }
  ],
  "textures": [
    {
      "sampler": 0,
      "source": 0
    },
    {
      "sampler": 0,
      "source": 1
    },
    {
      "sampler": 0,
      "source": 2
    }
  ]
}
